<?xml version="1.0" encoding="utf-8"?>
<!-- Generator: Adobe Illustrator 18.0.0, SVG Export Plug-In . SVG Version: 6.00 Build 0)  -->
<!DOCTYPE svg PUBLIC "-//W3C//DTD SVG 1.1//EN" "http://www.w3.org/Graphics/SVG/1.1/DTD/svg11.dtd">
<svg version="1.1" id="Layer_1" xmlns="http://www.w3.org/2000/svg" xmlns:xlink="http://www.w3.org/1999/xlink" x="0px" y="0px"
	 viewBox="0 0 612 792" enable-background="new 0 0 612 792" xml:space="preserve">
<g>
	<polygon fill="#00A79D" points="369.5,433.5 320.6,407.4 271.4,432.9 281.1,378.3 241.7,339.4 296.6,331.8 321.4,282.2 
		345.6,332.1 400.4,340.4 360.5,378.8 	"/>
	<polygon fill="#EF4136" points="390.5,414.8 336,405.1 297.1,444.5 289.4,389.7 239.9,364.8 289.7,340.6 298,285.8 336.5,325.7 
		391.1,316.7 365,365.6 	"/>
	<polygon fill="#00A79D" points="382.5,445.8 328,436.1 289.1,475.5 281.4,420.7 231.9,395.8 281.7,371.6 290,316.8 328.5,356.7 
		383.1,347.7 357,396.6 	"/>
	<polygon fill="#00A79D" points="382.5,445.8 328,436.1 289.1,475.5 281.4,420.7 231.9,395.8 281.7,371.6 290,316.8 328.5,356.7 
		383.1,347.7 357,396.6 	"/>
	<polygon fill="#00A79D" points="382.5,445.8 328,436.1 289.1,475.5 281.4,420.7 231.9,395.8 281.7,371.6 290,316.8 328.5,356.7 
		383.1,347.7 357,396.6 	"/>
</g>
</svg>
